mtllib box3.mtl
o Default
v -0.5 -0.49999951632591744 -0.5000000025
v -0.5 0.5000004836740826 -0.5000000025
v -0.4999999999999998 0.5000004836740826 0.4999999975
v -0.4999999999999998 -0.49999951632591744 0.4999999975
v 0.5 -0.49999951632591744 -0.5000000025
v 0.5 0.5000004836740826 -0.5000000025
v -0.5 0.5000004836740826 -0.5000000025
v -0.5 -0.49999951632591744 -0.5000000025
v 0.49999999999999895 -0.49999951632591744 0.4999999974999998
v 0.49999999999999895 0.5000004836740826 0.4999999974999998
v 0.49999999999999917 0.5000004836740826 -0.5000000025000002
v 0.49999999999999917 -0.49999951632591744 -0.5000000025000002
v -0.5 -0.49999951632591744 0.4999999975
v -0.5 0.5000004836740826 0.4999999975
v 0.5 0.5000004836740826 0.4999999975
v 0.5 -0.49999951632591744 0.4999999975
v -0.5 0.49997162959058417 0.5000499974997499
v -0.5 0.5000716295900841 -0.49994999750025015
v 0.5 0.5000716295900841 -0.49994999750025015
v 0.5 0.49997162959058417 0.5000499974997499
v -0.5 -0.5000716295900844 -0.5000499974997501
v -0.5 -0.4999716295905845 0.49994999750024993
v 0.5 -0.4999716295905845 0.49994999750024993
v 0.5 -0.5000716295900844 -0.5000499974997501
vt 0.5 0.75
vt 0.5625 0.8125
vt 0.5 0.8125
vt 0.5 0.75
vt 0.5625 0.75
vt 0.5625 0.8125
vt 0.5 0.75
vt 0.5625 0.8125
vt 0.5 0.8125
vt 0.5 0.75
vt 0.5625 0.75
vt 0.5625 0.8125
vt 0.5 0.75
vt 0.5625 0.8125
vt 0.5 0.8125
vt 0.5 0.75
vt 0.5625 0.75
vt 0.5625 0.8125
vt 0.5 0.75
vt 0.5625 0.8125
vt 0.5 0.8125
vt 0.5 0.75
vt 0.5625 0.75
vt 0.5625 0.8125
vt 0.5 0.75
vt 0.5625 0.8125
vt 0.5 0.8125
vt 0.5 0.75
vt 0.5625 0.75
vt 0.5625 0.8125
vt 0.5 0.75
vt 0.5625 0.8125
vt 0.5 0.8125
vt 0.5 0.75
vt 0.5625 0.75
vt 0.5625 0.8125
vn -1 0 2.220446049250313e-16
vn -1 0 2.220446049250313e-16
vn -1 0 2.220446049250313e-16
vn -1 0 2.220446049250313e-16
vn -1 0 2.220446049250313e-16
vn -1 0 2.220446049250313e-16
vn 0 0 -1
vn 0 0 -1
vn 0 0 -1
vn 0 0 -1
vn 0 0 -1
vn 0 0 -1
vn 1 0 2.220446049250313e-16
vn 1 0 2.220446049250313e-16
vn 1 0 2.220446049250313e-16
vn 1 0 2.220446049250313e-16
vn 1 0 2.220446049250313e-16
vn 1 0 2.220446049250313e-16
vn 0 0 1
vn 0 0 1
vn 0 0 1
vn 0 0 1
vn 0 0 1
vn 0 0 1
vn 0 0.999999995 0.00009999999949994454
vn 0 0.999999995 0.00009999999949994454
vn 0 0.999999995 0.00009999999949994454
vn 0 0.999999995 0.00009999999949994454
vn 0 0.999999995 0.00009999999949994454
vn 0 0.999999995 0.00009999999949994454
vn 0 -0.999999995 0.00009999999949994454
vn 0 -0.999999995 0.00009999999949994454
vn 0 -0.999999995 0.00009999999949994454
vn 0 -0.999999995 0.00009999999949994454
vn 0 -0.999999995 0.00009999999949994454
vn 0 -0.999999995 0.00009999999949994454
g Scene
usemtl material0
f 1/1/1 3/2/2 2/3/3
f 1/4/4 4/5/5 3/6/6
f 5/7/7 7/8/8 6/9/9
f 5/10/10 8/11/11 7/12/12
f 9/13/13 11/14/14 10/15/15
f 9/16/16 12/17/17 11/18/18
f 13/19/19 15/20/20 14/21/21
f 13/22/22 16/23/23 15/24/24
f 17/25/25 19/26/26 18/27/27
f 17/28/28 20/29/29 19/30/30
f 21/31/31 23/32/32 22/33/33
f 21/34/34 24/35/35 23/36/36
