# This file uses centimeters as units for non-parametric coordinates.

mtllib button.mtl
g default
v 1.155185 0.115927 0.370013
v 1.285172 0.115927 0.500000
v 1.155185 2.954055 0.370013
v 1.285172 2.954055 0.500000
v 2.155185 0.115927 0.370013
v 2.025198 0.115927 0.500000
v 2.025198 2.954055 0.500000
v 2.155185 2.954055 0.370013
v 1.285172 2.954055 -0.500000
v 1.155185 2.954055 -0.370013
v 1.155185 0.115927 -0.370013
v 1.285172 0.115927 -0.500000
v 2.155185 2.954055 -0.370013
v 2.025198 2.954055 -0.500000
v 2.155185 0.115927 -0.370013
v 2.025198 0.115927 -0.500000
v 1.395185 2.954055 0.130013
v 1.525172 2.954055 0.260000
v 1.785198 2.954055 0.260000
v 1.915185 2.954055 0.130013
v 1.915185 2.954055 -0.130013
v 1.785198 2.954055 -0.260000
v 1.525172 2.954055 -0.260000
v 1.395185 2.954055 -0.130013
v 1.915185 2.954055 -0.130013
v 1.915185 2.954055 0.130013
v 1.785198 2.954055 -0.260000
v 1.525172 2.954055 -0.260000
v 1.395185 2.954055 -0.130013
v 1.395185 2.954055 0.130013
v 1.525172 2.954055 0.260000
v 1.785198 2.954055 0.260000
v 1.915185 3.254055 -0.130013
v 1.915185 3.254055 0.130013
v 1.785198 3.254055 -0.260000
v 1.525172 3.254055 -0.260000
v 1.395185 3.254055 -0.130013
v 1.395185 3.254055 0.130013
v 1.525172 3.254055 0.260000
v 1.785198 3.254055 0.260000
vt 0.625000 0.782497
vt 0.625000 0.967503
vt 0.592503 1.000000
vt 0.407497 1.000000
vt 0.375000 0.967503
vt 0.407497 0.000000
vt 0.375000 0.250000
vt 0.657497 0.000000
vt 0.657497 0.250000
vt 0.375000 0.500000
vt 0.375000 0.782497
vt 0.625000 0.467503
vt 0.625000 0.500000
vt 0.625000 0.500000
vt 0.592503 0.750000
vt 0.592503 -0.000000
vt 0.592503 0.250000
vt 0.407497 0.500000
vt 0.407497 0.750000
vt 0.842503 -0.000000
vt 0.842503 0.250000
vt 0.157497 0.250000
vt 0.157497 0.000000
vt 0.342503 -0.000000
vt 0.342503 0.250000
vt 0.407497 0.250000
vt 0.562506 0.250000
vt 0.625000 0.282497
vt 0.625000 0.437506
vt 0.592503 0.500000
vt 0.437494 0.500000
vt 0.375000 0.467503
vt 0.375000 0.282497
vt 0.375000 0.312494
vt 0.437494 0.250000
vt 0.625000 0.312494
vt 0.562506 0.500000
vt 0.375000 0.437506
vt 0.625000 0.312494
vt 0.625000 0.437506
vt 0.562506 0.500000
vt 0.437494 0.500000
vt 0.375000 0.437506
vt 0.375000 0.312494
vt 0.437494 0.250000
vt 0.562506 0.250000
vt 0.625000 0.312494
vt 0.625000 0.437506
vt 0.562506 0.500000
vt 0.437494 0.500000
vt 0.375000 0.437506
vt 0.375000 0.312494
vt 0.437494 0.250000
vt 0.562506 0.250000
vn 0.000000 -1.000000 0.000000
vn 0.000000 -1.000000 0.000000
vn 0.000000 -1.000000 0.000000
vn 0.000000 -1.000000 0.000000
vn 0.000000 -1.000000 0.000000
vn 0.000000 -1.000000 0.000000
vn 0.000000 -1.000000 0.000000
vn 0.000000 -1.000000 0.000000
vn -0.707107 0.000000 0.707107
vn -0.707107 0.000000 0.707107
vn -0.707107 0.000000 0.707107
vn -0.707107 0.000000 0.707107
vn 0.000000 1.000000 0.000000
vn 0.000000 1.000000 0.000000
vn 0.000000 1.000000 0.000000
vn 0.000000 1.000000 0.000000
vn 0.707107 0.000000 0.707107
vn 0.707107 0.000000 0.707107
vn 0.707107 0.000000 0.707107
vn 0.707107 0.000000 0.707107
vn 0.000000 1.000000 0.000000
vn 0.000000 1.000000 0.000000
vn 0.000000 1.000000 0.000000
vn 0.000000 1.000000 0.000000
vn 0.000000 1.000000 0.000000
vn 0.000000 1.000000 0.000000
vn 0.000000 1.000000 0.000000
vn 0.000000 1.000000 0.000000
vn -0.707107 0.000000 -0.707107
vn -0.707107 0.000000 -0.707107
vn -0.707107 0.000000 -0.707107
vn -0.707107 0.000000 -0.707107
vn 0.000000 1.000000 0.000000
vn 0.000000 1.000000 0.000000
vn 0.000000 1.000000 0.000000
vn 0.000000 1.000000 0.000000
vn 0.707107 0.000000 -0.707107
vn 0.707107 0.000000 -0.707107
vn 0.707107 0.000000 -0.707107
vn 0.707107 0.000000 -0.707107
vn 0.000000 0.000000 1.000000
vn 0.000000 0.000000 1.000000
vn 0.000000 0.000000 1.000000
vn 0.000000 0.000000 1.000000
vn 0.000000 0.000000 -1.000000
vn 0.000000 0.000000 -1.000000
vn 0.000000 0.000000 -1.000000
vn 0.000000 0.000000 -1.000000
vn 1.000000 0.000000 0.000000
vn 1.000000 0.000000 0.000000
vn 1.000000 0.000000 0.000000
vn 1.000000 0.000000 0.000000
vn -1.000000 0.000000 0.000000
vn -1.000000 0.000000 0.000000
vn -1.000000 0.000000 0.000000
vn -1.000000 0.000000 0.000000
vn 0.000000 1.000000 0.000000
vn 0.000000 1.000000 0.000000
vn 0.000000 1.000000 0.000000
vn 0.000000 1.000000 0.000000
vn 0.000000 1.000000 0.000000
vn 0.000000 1.000000 0.000000
vn 0.000000 1.000000 0.000000
vn 0.000000 1.000000 0.000000
vn 0.000000 0.000000 0.000000
vn 0.000000 0.000000 0.000000
vn 0.000000 0.000000 0.000000
vn 0.000000 0.000000 0.000000
vn 0.000000 0.000000 0.000000
vn 0.000000 0.000000 0.000000
vn 0.000000 0.000000 0.000000
vn 0.000000 0.000000 0.000000
vn 0.000000 0.000000 0.000000
vn 0.000000 0.000000 0.000000
vn 0.000000 0.000000 0.000000
vn 0.000000 0.000000 0.000000
vn 0.000000 0.000000 0.000000
vn 0.000000 0.000000 0.000000
vn 0.000000 0.000000 0.000000
vn 0.000000 0.000000 0.000000
vn 0.000000 0.000000 0.000000
vn 0.000000 0.000000 0.000000
vn 0.000000 0.000000 0.000000
vn 0.000000 0.000000 0.000000
vn 0.000000 0.000000 0.000000
vn 0.000000 0.000000 0.000000
vn 0.000000 0.000000 0.000000
vn 0.000000 0.000000 0.000000
vn 0.000000 0.000000 0.000000
vn 0.000000 0.000000 0.000000
vn 0.000000 0.000000 0.000000
vn 0.000000 0.000000 0.000000
vn 0.000000 0.000000 0.000000
vn 0.000000 0.000000 0.000000
vn 0.000000 0.000000 0.000000
vn 0.000000 0.000000 0.000000
vn 1.000000 0.000000 0.000000
vn 1.000000 0.000000 0.000000
vn 1.000000 0.000000 0.000000
vn 1.000000 0.000000 0.000000
vn 0.707107 -0.000000 -0.707107
vn 0.707107 -0.000000 -0.707107
vn 0.707107 -0.000000 -0.707107
vn 0.707107 -0.000000 -0.707107
vn 0.000000 -0.000000 -1.000000
vn 0.000000 -0.000000 -1.000000
vn 0.000000 -0.000000 -1.000000
vn 0.000000 -0.000000 -1.000000
vn -0.707107 -0.000000 -0.707107
vn -0.707107 -0.000000 -0.707107
vn -0.707107 -0.000000 -0.707107
vn -0.707107 -0.000000 -0.707107
vn -1.000000 -0.000000 0.000000
vn -1.000000 -0.000000 0.000000
vn -1.000000 -0.000000 0.000000
vn -1.000000 -0.000000 0.000000
vn -0.707107 0.000000 0.707107
vn -0.707107 0.000000 0.707107
vn -0.707107 0.000000 0.707107
vn -0.707107 0.000000 0.707107
vn 0.000000 0.000000 1.000000
vn 0.000000 0.000000 1.000000
vn 0.000000 0.000000 1.000000
vn 0.000000 0.000000 1.000000
vn 0.707107 0.000000 0.707107
vn 0.707107 0.000000 0.707107
vn 0.707107 0.000000 0.707107
vn 0.707107 0.000000 0.707107
s off
g pCube2
usemtl initialShadingGroup
f 11/11/1 12/19/2 16/15/3 15/1/4 5/2/5 6/3/6 2/4/7 1/5/8
f 1/24/9 2/6/10 4/26/11 3/25/12
s 1
f 3/7/13 4/26/14 18/35/15 17/34/16
s off
f 6/16/17 5/8/18 8/9/19 7/17/20
s 1
f 7/17/21 8/9/22 20/36/23 19/27/24
f 9/18/25 10/10/26 24/38/27 23/31/28
s off
f 10/10/29 9/18/30 12/19/31 11/11/32
s 1
f 13/12/33 14/13/34 22/37/35 21/29/36
s off
f 14/30/37 13/14/38 15/1/39 16/15/40
f 4/26/41 2/6/42 6/16/43 7/17/44
f 9/18/45 14/30/46 16/15/47 12/19/48
f 8/9/49 5/8/50 15/20/51 13/21/52
f 10/22/53 11/23/54 1/24/55 3/25/56
s 1
f 4/26/14 7/17/21 19/27/24 18/35/15
f 8/28/22 13/12/33 21/29/36 20/36/23
f 14/30/34 9/18/25 23/31/28 22/37/35
f 10/32/26 3/33/13 17/34/16 24/38/27
s off
f 34/47/57 33/48/58 35/49/59 36/50/60 37/51/61 38/52/62 39/53/63 40/54/64
f 20/36/65 21/29/66 25/40/67 26/39/68
f 21/29/69 22/37/70 27/41/71 25/40/72
f 22/37/73 23/31/74 28/42/75 27/41/76
f 23/31/77 24/38/78 29/43/79 28/42/80
f 24/38/81 17/34/82 30/44/83 29/43/84
f 17/34/85 18/35/86 31/45/87 30/44/88
f 18/35/89 19/27/90 32/46/91 31/45/92
f 19/27/93 20/36/94 26/39/95 32/46/96
f 26/39/97 25/40/98 33/48/99 34/47/100
f 25/40/101 27/41/102 35/49/103 33/48/104
f 27/41/105 28/42/106 36/50/107 35/49/108
f 28/42/109 29/43/110 37/51/111 36/50/112
f 29/43/113 30/44/114 38/52/115 37/51/116
f 30/44/117 31/45/118 39/53/119 38/52/120
f 31/45/121 32/46/122 40/54/123 39/53/124
f 32/46/125 26/39/126 34/47/127 40/54/128
