mtllib box2.mtl
o Default
v -1 0 -1
v -1 1 -1
v -0.9999999999999998 1 0
v -0.9999999999999998 0 0
v 0 0 -1
v 0 1 -1
v -1 1 -1
v -1 0 -1
v -1.0547118733938987e-15 0 -2.220446049250313e-16
v -1.0547118733938987e-15 1 -2.220446049250313e-16
v -8.326672684688674e-16 1 -1.0000000000000002
v -8.326672684688674e-16 0 -1.0000000000000002
v -1 0 0
v -1 1 0
v 0 1 0
v 0 0 0
v -1 0.9999711459165016 0.00004999999974997227
v -1 1.0000711459160017 -0.9999499950002501
v 0 1.0000711459160017 -0.9999499950002501
v 0 0.9999711459165016 0.00004999999974997227
v -1 -0.00007211326416705724 -1.0000499949997501
v -1 0.0000278867353328873 -0.00004999999975008329
v 0 0.0000278867353328873 -0.00004999999975008329
v 0 -0.00007211326416705724 -1.0000499949997501
vt 0.5 0.75
vt 0.5625 0.8125
vt 0.5 0.8125
vt 0.5 0.75
vt 0.5625 0.75
vt 0.5625 0.8125
vt 0.5 0.75
vt 0.5625 0.8125
vt 0.5 0.8125
vt 0.5 0.75
vt 0.5625 0.75
vt 0.5625 0.8125
vt 0.5 0.75
vt 0.5625 0.8125
vt 0.5 0.8125
vt 0.5 0.75
vt 0.5625 0.75
vt 0.5625 0.8125
vt 0.5 0.75
vt 0.5625 0.8125
vt 0.5 0.8125
vt 0.5 0.75
vt 0.5625 0.75
vt 0.5625 0.8125
vt 0.5 0.75
vt 0.5625 0.8125
vt 0.5 0.8125
vt 0.5 0.75
vt 0.5625 0.75
vt 0.5625 0.8125
vt 0.5 0.75
vt 0.5625 0.8125
vt 0.5 0.8125
vt 0.5 0.75
vt 0.5625 0.75
vt 0.5625 0.8125
vn -1 0 2.220446049250313e-16
vn -1 0 2.220446049250313e-16
vn -1 0 2.220446049250313e-16
vn -1 0 2.220446049250313e-16
vn -1 0 2.220446049250313e-16
vn -1 0 2.220446049250313e-16
vn 0 0 -1
vn 0 0 -1
vn 0 0 -1
vn 0 0 -1
vn 0 0 -1
vn 0 0 -1
vn 1 0 2.220446049250313e-16
vn 1 0 2.220446049250313e-16
vn 1 0 2.220446049250313e-16
vn 1 0 2.220446049250313e-16
vn 1 0 2.220446049250313e-16
vn 1 0 2.220446049250313e-16
vn 0 0 1
vn 0 0 1
vn 0 0 1
vn 0 0 1
vn 0 0 1
vn 0 0 1
vn 0 0.999999995 0.00009999999950005556
vn 0 0.999999995 0.00009999999950005556
vn 0 0.999999995 0.00009999999950005556
vn 0 0.999999995 0.00009999999950005556
vn 0 0.999999995 0.00009999999950005556
vn 0 0.999999995 0.00009999999950005556
vn 0 -0.999999995 0.00009999999949994454
vn 0 -0.999999995 0.00009999999949994454
vn 0 -0.999999995 0.00009999999949994454
vn 0 -0.999999995 0.00009999999949994454
vn 0 -0.999999995 0.00009999999949994454
vn 0 -0.999999995 0.00009999999949994454
g Scene
usemtl material0
f 1/1/1 3/2/2 2/3/3
f 1/4/4 4/5/5 3/6/6
f 5/7/7 7/8/8 6/9/9
f 5/10/10 8/11/11 7/12/12
f 9/13/13 11/14/14 10/15/15
f 9/16/16 12/17/17 11/18/18
f 13/19/19 15/20/20 14/21/21
f 13/22/22 16/23/23 15/24/24
f 17/25/25 19/26/26 18/27/27
f 17/28/28 20/29/29 19/30/30
f 21/31/31 23/32/32 22/33/33
f 21/34/34 24/35/35 23/36/36
